DBRep_DrawableShape

CASCADE Topology V3, (c) Open Cascade
Locations 1
1
              1               0               0              40 
              0               1               0               5 
              0               0               1               0 
Curve2ds 0
Curves 12
1 0 0 0 0 0 1 
1 0 0 0 -0 1 0 
1 0 10 0 0 0 1 
1 0 0 15 -0 1 0 
1 5 0 0 0 0 1 
1 5 0 0 -0 1 0 
1 5 10 0 0 0 1 
1 5 0 15 -0 1 0 
1 0 0 0 1 0 -0 
1 0 0 15 1 0 -0 
1 0 10 0 1 0 -0 
1 0 10 15 1 0 -0 
Polygon3D 0
PolygonOnTriangulations 0
Surfaces 6
1 0 0 0 1 0 -0 0 0 1 0 -1 0 
1 0 0 0 -0 1 0 0 0 1 1 0 -0 
1 0 0 0 0 0 1 1 0 -0 -0 1 0 
1 0 10 0 -0 1 0 0 0 1 1 0 -0 
1 0 0 15 0 0 1 1 0 -0 -0 1 0 
1 5 0 0 1 0 -0 0 0 1 0 -1 0 
Triangulations 0

TShapes 35
Ve
1e-07
0 0 0
0 0

0101101
*
Ve
1e-07
0 0 15
0 0

0101101
*
Ed
 1e-07 1 1 0
1  1 0 0 15
4 C0 1 0 2 0
0

0101000
+35 0 -34 0 *
Ve
1e-07
0 10 0
0 0

0101101
*
Ed
 1e-07 1 1 0
1  2 0 0 10
4 C0 1 0 3 0
0

0101000
+35 0 -32 0 *
Ve
1e-07
0 10 15
0 0

0101101
*
Ed
 1e-07 1 1 0
1  3 0 0 15
4 C0 1 0 4 0
0

0101000
+32 0 -30 0 *
Ed
 1e-07 1 1 0
1  4 0 0 10
4 C0 1 0 5 0
0

0101000
+34 0 -30 0 *
Wi

0101100
-33 0 +31 0 +29 0 -28 0 *
Fa
0  1e-07 1 0

0111000
+27 0 *
Ve
1e-07
5 0 0
0 0

0101101
*
Ve
1e-07
5 0 15
0 0

0101101
*
Ed
 1e-07 1 1 0
1  5 0 0 15
4 C0 6 0 2 0
0

0101000
+25 0 -24 0 *
Ve
1e-07
5 10 0
0 0

0101101
*
Ed
 1e-07 1 1 0
1  6 0 0 10
4 C0 6 0 3 0
0

0101000
+25 0 -22 0 *
Ve
1e-07
5 10 15
0 0

0101101
*
Ed
 1e-07 1 1 0
1  7 0 0 15
4 C0 6 0 4 0
0

0101000
+22 0 -20 0 *
Ed
 1e-07 1 1 0
1  8 0 0 10
4 C0 6 0 5 0
0

0101000
+24 0 -20 0 *
Wi

0101100
-23 0 +21 0 +19 0 -18 0 *
Fa
0  1e-07 6 0

0111000
+17 0 *
Ed
 1e-07 1 1 0
1  9 0 0 5
4 C0 2 0 3 0
0

0101000
+35 0 -25 0 *
Ed
 1e-07 1 1 0
1  10 0 0 5
4 C0 2 0 5 0
0

0101000
+34 0 -24 0 *
Wi

0101100
-15 0 +33 0 +14 0 -23 0 *
Fa
0  1e-07 2 0

0111000
+13 0 *
Ed
 1e-07 1 1 0
1  11 0 0 5
4 C0 4 0 3 0
0

0101000
+32 0 -22 0 *
Ed
 1e-07 1 1 0
1  12 0 0 5
4 C0 4 0 5 0
0

0101000
+30 0 -20 0 *
Wi

0101100
-11 0 +29 0 +10 0 -19 0 *
Fa
0  1e-07 4 0

0111000
+9 0 *
Wi

0101100
-31 0 +15 0 +21 0 -11 0 *
Fa
0  1e-07 3 0

0111000
+7 0 *
Wi

0101100
-28 0 +14 0 +18 0 -10 0 *
Fa
0  1e-07 5 0

0111000
+5 0 *
Sh

0101100
-26 0 +16 0 -12 0 +8 0 -6 0 +4 0 *
So

0100000
+3 0 *
Co

1100000
+2 1 *

+1 0 