DBRep_DrawableShape

CASCADE Topology V3, (c) Open Cascade
Locations 0
Curve2ds 0
Curves 12
1 0 0 0 0 0 1 
1 0 0 0 -0 1 0 
1 0 20 0 0 0 1 
1 0 0 30 -0 1 0 
1 10 0 0 0 0 1 
1 10 0 0 -0 1 0 
1 10 20 0 0 0 1 
1 10 0 30 -0 1 0 
1 0 0 0 1 0 -0 
1 0 0 30 1 0 -0 
1 0 20 0 1 0 -0 
1 0 20 30 1 0 -0 
Polygon3D 0
PolygonOnTriangulations 24
2 1 2 
p 0.1 1 0 30 
2 1 3 
p 0.1 1 0 30 
2 1 3 
p 0.1 1 0 20 
2 1 2 
p 0.1 1 0 20 
2 3 4 
p 0.1 1 0 30 
2 1 3 
p 0.1 1 0 30 
2 2 4 
p 0.1 1 0 20 
2 1 2 
p 0.1 1 0 20 
2 1 2 
p 0.1 1 0 30 
2 2 4 
p 0.1 1 0 30 
2 1 3 
p 0.1 1 0 20 
2 3 4 
p 0.1 1 0 20 
2 3 4 
p 0.1 1 0 30 
2 2 4 
p 0.1 1 0 30 
2 2 4 
p 0.1 1 0 20 
2 3 4 
p 0.1 1 0 20 
2 1 2 
p 0.1 1 0 10 
2 1 3 
p 0.1 1 0 10 
2 3 4 
p 0.1 1 0 10 
2 1 3 
p 0.1 1 0 10 
2 1 2 
p 0.1 1 0 10 
2 2 4 
p 0.1 1 0 10 
2 3 4 
p 0.1 1 0 10 
2 2 4 
p 0.1 1 0 10 
Surfaces 6
1 0 0 0 1 0 -0 0 0 1 0 -1 0 
1 0 0 0 -0 1 0 0 0 1 1 0 -0 
1 0 0 0 0 0 1 1 0 -0 -0 1 0 
1 0 20 0 -0 1 0 0 0 1 1 0 -0 
1 0 0 30 0 0 1 1 0 -0 -0 1 0 
1 10 0 0 1 0 -0 0 0 1 0 -1 0 
Triangulations 6
4 2 1 0 0
0 0 0 0 0 30 0 20 0 0 20 30 0 0 30 0 0 -20 30 -20 2 1 3 2 3 4 
4 2 1 0 0
0 0 0 10 0 0 0 0 30 10 0 30 0 0 0 10 30 0 30 10 4 2 1 4 1 3 
4 2 1 0 0
0 0 0 0 20 0 10 0 0 10 20 0 0 0 0 20 10 0 10 20 4 2 1 4 1 3 
4 2 1 0 0
0 20 0 10 20 0 0 20 30 10 20 30 0 0 0 10 30 0 30 10 4 2 1 4 1 3 
4 2 1 0 0
0 0 30 0 20 30 10 0 30 10 20 30 0 0 0 20 10 0 10 20 4 2 1 4 1 3 
4 2 1 0 0
10 0 0 10 0 30 10 20 0 10 20 30 0 0 30 0 0 -20 30 -20 2 1 3 2 3 4 

TShapes 34
Ve
1e-07
0 0 0
0 0

0101101
*
Ve
1e-07
0 0 30
0 0

0101101
*
Ed
 1e-07 1 1 0
1  1 0 0 30
4 C0 1 0 2 0
6  1 1 0
6  2 2 0
0

0101000
+34 0 -33 0 *
Ve
1e-07
0 20 0
0 0

0101101
*
Ed
 1e-07 1 1 0
1  2 0 0 20
4 C0 1 0 3 0
6  3 1 0
6  4 3 0
0

0101000
+34 0 -31 0 *
Ve
1e-07
0 20 30
0 0

0101101
*
Ed
 1e-07 1 1 0
1  3 0 0 30
4 C0 1 0 4 0
6  5 1 0
6  6 4 0
0

0101000
+31 0 -29 0 *
Ed
 1e-07 1 1 0
1  4 0 0 20
4 C0 1 0 5 0
6  7 1 0
6  8 5 0
0

0101000
+33 0 -29 0 *
Wi

0101100
-32 0 +30 0 +28 0 -27 0 *
Fa
0  1e-07 1 0
2  1
0111000
+26 0 *
Ve
1e-07
10 0 0
0 0

0101101
*
Ve
1e-07
10 0 30
0 0

0101101
*
Ed
 1e-07 1 1 0
1  5 0 0 30
4 C0 6 0 2 0
6  9 6 0
6  10 2 0
0

0101000
+24 0 -23 0 *
Ve
1e-07
10 20 0
0 0

0101101
*
Ed
 1e-07 1 1 0
1  6 0 0 20
4 C0 6 0 3 0
6  11 6 0
6  12 3 0
0

0101000
+24 0 -21 0 *
Ve
1e-07
10 20 30
0 0

0101101
*
Ed
 1e-07 1 1 0
1  7 0 0 30
4 C0 6 0 4 0
6  13 6 0
6  14 4 0
0

0101000
+21 0 -19 0 *
Ed
 1e-07 1 1 0
1  8 0 0 20
4 C0 6 0 5 0
6  15 6 0
6  16 5 0
0

0101000
+23 0 -19 0 *
Wi

0101100
-22 0 +20 0 +18 0 -17 0 *
Fa
0  1e-07 6 0
2  6
0111000
+16 0 *
Ed
 1e-07 1 1 0
1  9 0 0 10
4 C0 2 0 3 0
6  17 2 0
6  18 3 0
0

0101000
+34 0 -24 0 *
Ed
 1e-07 1 1 0
1  10 0 0 10
4 C0 2 0 5 0
6  19 2 0
6  20 5 0
0

0101000
+33 0 -23 0 *
Wi

0101100
-14 0 +32 0 +13 0 -22 0 *
Fa
0  1e-07 2 0
2  2
0111000
+12 0 *
Ed
 1e-07 1 1 0
1  11 0 0 10
4 C0 4 0 3 0
6  21 4 0
6  22 3 0
0

0101000
+31 0 -21 0 *
Ed
 1e-07 1 1 0
1  12 0 0 10
4 C0 4 0 5 0
6  23 4 0
6  24 5 0
0

0101000
+29 0 -19 0 *
Wi

0101100
-10 0 +28 0 +9 0 -18 0 *
Fa
0  1e-07 4 0
2  4
0111000
+8 0 *
Wi

0101100
-30 0 +14 0 +20 0 -10 0 *
Fa
0  1e-07 3 0
2  3
0111000
+6 0 *
Wi

0101100
-27 0 +13 0 +17 0 -9 0 *
Fa
0  1e-07 5 0
2  5
0111000
+4 0 *
Sh

0101100
-25 0 +15 0 -11 0 +7 0 -5 0 +3 0 *
So

0100000
+2 0 *

+1 0 